<svg width="1072" height="304" viewBox="-50 0 304 304" fill="none" xmlns="http://www.w3.org/2000/svg">
<path d="M722.328 70.3597C734.724 70.3597 744.772 60.3113 744.772 47.9159C744.772 35.5206 734.724 25.4722 722.328 25.4722C709.933 25.4722 699.884 35.5206 699.884 47.9159C699.884 60.3113 709.933 70.3597 722.328 70.3597Z" fill="white"/>
<path fill-rule="evenodd" clip-rule="evenodd" d="M1000.22 234.295C1011.62 234.295 1023.02 231.108 1034.42 224.736C1037.29 228.595 1041.06 231.782 1045.73 234.295L1071.04 211.945C1068.88 210.419 1067.09 208.804 1065.65 207.098C1064.31 205.393 1063.05 202.7 1061.88 199.02C1060.81 195.34 1060.27 187.531 1060.27 175.593V31.6655H1027.28V91.5792C1020.64 89.784 1013.86 88.8864 1006.95 88.8864C984.422 88.8864 965.932 96.0671 951.481 110.428C937.12 124.61 929.939 142.382 929.939 163.745C929.939 184.389 936.132 201.174 948.519 214.099C954.533 220.382 961.803 225.319 970.33 228.909C978.857 232.5 988.821 234.295 1000.22 234.295ZM1027.28 199.02C1021 201.892 1014.09 203.328 1006.55 203.328C992.097 203.328 981.012 199.244 973.292 191.076C966.112 183.447 962.521 173.214 962.521 160.379C962.521 148.621 966.471 139.061 974.37 131.701C978.139 128.201 982.627 125.463 987.833 123.488C993.129 121.514 999.457 120.526 1006.82 120.526C1014.18 120.526 1021 121.828 1027.28 124.431V199.02Z" fill="white"/>
<path d="M279.506 232.275C279.147 229.942 278.967 224.915 278.967 217.196V134.259C281.66 130.041 284.936 126.675 288.796 124.161C292.745 121.558 296.605 120.257 300.374 120.257C310.248 120.257 316.755 123.039 319.897 128.604L320.435 128.201L322.859 91.9831C318.012 89.9186 311.37 88.8864 302.932 88.8864C294.585 88.8864 286.596 93.2397 278.967 101.946C278.967 101.946 278.967 103.646 278.967 97.6128C278.967 91.5792 271.85 91.5792 271.85 91.5792H237.383C237.383 93.605 245.981 91.5792 245.981 114.446C245.981 137.312 245.981 232.275 245.981 232.275H279.506Z" fill="white"/>
<path fill-rule="evenodd" clip-rule="evenodd" d="M337.938 133.855C334.348 142.831 332.553 152.57 332.553 163.072C332.553 183.896 340.048 200.995 355.037 214.369C369.937 227.653 388.786 234.295 411.585 234.295C415.714 234.295 420.022 234.026 424.51 233.487C439.769 231.692 450.809 228.461 457.631 223.793L459.112 202.79C459.381 198.84 459.606 194.981 459.785 191.211C458.439 192.378 456.419 193.634 453.726 194.981C443.494 200.097 431.242 202.655 416.97 202.655C403.327 202.655 392.242 200.007 383.715 194.711C375.188 189.326 369.758 181.831 367.424 172.227H414.816C442.372 172.227 460.638 170.97 469.614 168.457C470.691 165.854 471.229 161.007 471.229 153.916C471.229 135.426 465.53 120.077 454.13 107.87C442.552 95.2144 427.203 88.8864 408.084 88.8864C385.465 88.8864 367.155 96.0222 353.152 110.294C346.6 117.026 341.529 124.88 337.938 133.855ZM403.911 117.16C421.234 117.16 431.736 126.809 435.416 146.107C433.082 146.287 430.434 146.421 427.472 146.511L416.432 146.915C412.034 147.005 407.546 147.05 402.968 147.05H395.294C392.242 147.05 389.056 147.005 385.735 146.915H375.771C372.63 146.825 369.982 146.736 367.828 146.646C368.995 142.337 370.655 138.388 372.809 134.798C379.9 123.039 390.267 117.16 403.911 117.16Z" fill="white"/>
<path d="M481.731 91.5792H517.948L542.991 192.692L569.919 91.5792H600.885L628.755 194.846L653.798 91.5792H686.38L644.912 232.275H610.041L583.382 140.049L558.609 232.275H524.007L481.731 91.5792Z" fill="white"/>
<path d="M739.023 232.275C738.664 229.942 738.485 224.915 738.485 217.196V91.5792H704.825V232.275H739.023Z" fill="white"/>
<path d="M811.997 215.042C811.997 222.94 812.356 228.685 813.074 232.275H779.28V91.5792H811.997V103.562C823.845 93.7782 836.501 88.8864 849.964 88.8864C864.685 88.8864 876.443 93.9129 885.24 103.966C894.036 113.929 898.434 127.079 898.434 143.415V197C898.434 212.169 898.658 221.28 899.107 224.332C899.556 227.383 900.139 229.358 900.857 230.256C901.665 231.153 902.338 231.961 902.877 232.679L902.608 233.218C895.337 232.589 890.042 232.275 886.721 232.275H877.296C874.424 232.275 870.564 232.41 865.717 232.679V159.302C865.717 133.003 857.729 119.853 841.752 119.853C829.904 119.853 819.985 125.957 811.997 138.164V215.042Z" fill="white"/>
<path d="M149.409 263.607C149.409 263.607 94.4999 198.402 79.0566 158.364C66.8544 126.905 60.1814 92.7774 59.8001 57.3149C-22.183 140.823 -20.0857 156.267 67.4264 243.969C163.137 339.489 187.35 301.358 149.409 263.607Z" fill="#F7C20F"/>
<path d="M166.568 13.0823C166.568 -5.03022 129.008 -5.98351 96.787 20.7087C90.686 25.6658 75.4333 41.2998 75.4333 41.2998C75.2427 45.4942 75.052 49.8794 75.052 54.0739C75.052 82.1006 79.2465 109.174 87.2541 134.722C101.363 99.2599 122.335 67.4199 148.646 40.7278C161.992 27.3817 166.568 22.6152 166.568 13.0823Z" fill="#F7C20F"/>
</svg>
